<svg width="329" height="308" viewBox="0 0 329 308" fill="none" xmlns="http://www.w3.org/2000/svg">
<path fill-rule="evenodd" clip-rule="evenodd" d="M219.761 279.077C217.674 267.983 206.988 260.682 195.893 262.769L171.295 267.398C165.968 268.4 161.256 271.478 158.198 275.954C155.14 280.43 153.985 285.938 154.987 291.266C157.075 302.36 167.761 309.661 178.855 307.574L203.453 302.945C214.547 300.858 221.849 290.172 219.761 279.077V279.077ZM59.3646 255.626C62.7681 255.251 66.8552 254.634 70.8878 253.628C75.133 264.236 82.4522 273.438 92.0234 279.978C104.73 288.659 120.364 291.938 135.487 289.093L143.152 287.65C143.162 289.563 143.344 291.484 143.702 293.389C144.065 295.315 144.594 297.169 145.271 298.936L137.611 300.377C119.495 303.786 100.766 299.859 85.5453 289.459C73.4027 281.162 64.2858 269.288 59.3646 255.626V255.626ZM51.365 244.698C42.1731 244.872 33.0856 242.197 25.396 236.942C15.6439 230.279 8.93812 220.014 6.754 208.407L1.73542 181.735C-0.448693 170.128 2.06766 158.128 8.731 148.375C15.3943 138.623 25.659 131.917 37.2665 129.733L40.1799 129.185C33.7768 69.5301 74.2516 14.0264 134.231 2.74048C194.211 -8.54545 252.091 28.4515 267.807 86.3535L270.721 85.8053C282.328 83.6212 294.328 86.1382 304.08 92.8015C313.833 99.4649 320.538 109.73 322.722 121.337L327.741 148.009C329.925 159.616 327.409 171.616 320.745 181.368C314.082 191.121 303.818 197.827 292.21 200.011L279.295 202.441C273.938 203.449 268.779 199.923 267.771 194.567L249.828 99.2067C240.048 47.2294 189.983 13.0219 138.006 22.8022C86.0286 32.5824 51.8212 82.6466 61.6014 134.624L79.5448 229.985C80.2564 233.766 78.7082 237.451 75.8507 239.644C67.7241 244.297 53.8301 244.652 51.365 244.698V244.698Z" fill="white" fill-opacity="0.1"/>
</svg>
